<svg width="838" height="119" viewBox="0 0 838 119" fill="none" xmlns="http://www.w3.org/2000/svg">
<g opacity="0.6">
<path fill-rule="evenodd" clip-rule="evenodd" d="M49.0004 5.49673C48.9986 5.22059 49.221 4.99527 49.4971 4.99347L222.851 3.85895L223.209 3.39004L223.815 3.85264L480.529 2.17258L481.004 1.99672L481.068 2.16905L812.497 1.0935e-05C812.773 -0.00179611 812.999 0.220592 813 0.496728C813.002 0.772865 812.78 0.998182 812.504 0.99999L691.007 1.79513L756.871 54.2179L827 53.9605L827.003 54.9604L758.122 55.2133L837.004 117.997L836.381 118.779L756.524 55.2192L613.315 55.745L660.004 117.997L659.204 118.597L612.068 55.7496L501.08 56.1571L524.004 117.997L523.066 118.344L500.015 56.161L304.738 56.8779L279.004 117.997L278.082 117.609L303.651 56.8819L183.307 57.3237L137.004 117.997L136.209 117.39L182.045 57.3284L0.0036714 57.9967L0 56.9967L182.811 56.3255L222.084 4.86399L49.5037 5.99344C49.2275 5.99525 49.0022 5.77286 49.0004 5.49673ZM755.273 54.2238L689.414 1.80555L573.43 2.56461L612.567 54.7477L755.273 54.2238ZM481.437 3.16665L572.236 2.57242L572.204 2.59672L611.32 54.7523L500.71 55.1584L481.437 3.16665ZM499.645 55.1623L480.373 3.17362L326.927 4.17784L305.16 55.8764L499.645 55.1623ZM223.348 4.85572L325.839 4.18497L304.073 55.8803L184.072 56.3209L223.348 4.85572Z" fill="url(#paint0_linear_36_26)"/>
<path fill-rule="evenodd" clip-rule="evenodd" d="M49.0004 5.49673C48.9986 5.22059 49.221 4.99527 49.4971 4.99347L222.851 3.85895L223.209 3.39004L223.815 3.85264L480.529 2.17258L481.004 1.99672L481.068 2.16905L812.497 1.0935e-05C812.773 -0.00179611 812.999 0.220592 813 0.496728C813.002 0.772865 812.78 0.998182 812.504 0.99999L691.007 1.79513L756.871 54.2179L827 53.9605L827.003 54.9604L758.122 55.2133L837.004 117.997L836.381 118.779L756.524 55.2192L613.315 55.745L660.004 117.997L659.204 118.597L612.068 55.7496L501.08 56.1571L524.004 117.997L523.066 118.344L500.015 56.161L304.738 56.8779L279.004 117.997L278.082 117.609L303.651 56.8819L183.307 57.3237L137.004 117.997L136.209 117.39L182.045 57.3284L0.0036714 57.9967L0 56.9967L182.811 56.3255L222.084 4.86399L49.5037 5.99344C49.2275 5.99525 49.0022 5.77286 49.0004 5.49673ZM755.273 54.2238L689.414 1.80555L573.43 2.56461L612.567 54.7477L755.273 54.2238ZM481.437 3.16665L572.236 2.57242L572.204 2.59672L611.32 54.7523L500.71 55.1584L481.437 3.16665ZM499.645 55.1623L480.373 3.17362L326.927 4.17784L305.16 55.8764L499.645 55.1623ZM223.348 4.85572L325.839 4.18497L304.073 55.8803L184.072 56.3209L223.348 4.85572Z" fill="url(#paint1_radial_36_26)"/>
</g>
<defs>
<linearGradient id="paint0_linear_36_26" x1="408.004" y1="28.9967" x2="20.0036" y2="15.9967" gradientUnits="userSpaceOnUse">
<stop/>
<stop offset="1" stop-opacity="0"/>
</linearGradient>
<radialGradient id="paint1_radial_36_26" cx="0" cy="0" r="1" gradientUnits="userSpaceOnUse" gradientTransform="translate(397.004 58.9967) rotate(-1.69235) scale(440.192 3101.93)">
<stop stop-color="#B6B5B5" stop-opacity="0.31"/>
<stop offset="1"/>
</radialGradient>
</defs>
</svg>
